<svg id="Capa_1" enable-background="new 0 0 510 510" height="512" viewBox="0 0 510 510" width="512" xmlns="http://www.w3.org/2000/svg"><g id="XMLID_316_"><path id="XMLID_617_" d="m90.039 326.968c-53.403-27.35-90.039-82.96-90.039-146.968 0-90.981 74.019-165 165-165 33.181 0 64.099 9.854 90 26.775 0 0-74.98 140.248-74.961 141.258z" fill="#99cdff"/><path id="XMLID_618_" d="m419.962 326.968c53.402-27.35 90.038-82.96 90.038-146.968 0-90.981-74.019-165-165-165-33.181 0-64.1 9.854-90 26.775 0 0 74.979 140.248 74.962 141.258z" fill="#34ce96"/><path id="XMLID_691_" d="m90.039 326.968c-.019 1.009-.039 2.018-.039 3.032 0 90.981 74.019 165 165 165l10-93-10-83.775z" fill="#fe6664"/><path id="XMLID_638_" d="m255 318.225v176.775c90.981 0 165-74.019 165-165 0-1.014-.021-2.023-.038-3.032z" fill="#e82e68"/><path id="XMLID_670_" d="m180.039 183.033c-52.557 26.916-88.863 81.207-90 143.935 22.504 11.525 47.987 18.032 74.961 18.032 33.181 0 64.099-9.853 90-26.775z" fill="#629df5"/><path id="XMLID_692_" d="m255 318.225c25.9 16.922 56.819 26.775 90 26.775 26.974 0 52.456-6.507 74.962-18.032-1.138-62.728-37.443-117.019-90-143.935z" fill="#52fe83"/><path id="XMLID_637_" d="m180.039 183.033c1.025 56.546 30.634 106.23 74.961 135.191l10-73.558-10-79.666c-14.752 0-42.673-4.405-42.673-4.405s-22.091 17.216-32.288 22.438z" fill="#d3dce3"/><path id="XMLID_823_" d="m255 165v153.225c44.328-28.961 73.936-78.646 74.962-135.191-10.901-5.583-34.63-23.047-34.63-23.047s-26.424 5.013-40.332 5.013z" fill="#a4c6cb"/><path id="XMLID_818_" d="m180 180c0 1.014.02 2.023.039 3.033 22.504-11.525 47.987-18.033 74.961-18.033l10-46-10-77.225c-45.119 29.479-75 80.424-75 138.225z" fill="#fff5f5"/><path id="XMLID_634_" d="m255 41.775v123.225c26.974 0 52.456 6.508 74.962 18.033.018-1.01.038-2.02.038-3.033 0-57.801-29.881-108.746-75-138.225z" fill="#d3dce3"/></g></svg>